# xmcd
#
# Track frame offsets:
#       150
#       30445
#       64935
#       83600
#       112548
#       138558
#       172733
#       189533
#       226185
#       239763
#
# Disc length: 3771 seconds
#
# Revision: 1
# Processed by: cddbd v1.5.2PL0 Copyright (c) Steve Scherf et al.
# Submitted via: FreeDbEdit v0.1
#
DISCID=730eb90a
DTITLE=Joe Pass Trio - Live at Donte's
DYEAR=1981
DGENRE=Jazz
TTITLE0=What Have They Done to My Song
TTITLE1=You Stepped Out of a Dream
TTITLE2=A Time for Love
TTITLE3=Donte's Inferno
TTITLE4=You Are the Sunshine of My Life
TTITLE5=Secret Love
TTITLE6=Darn That Dream
TTITLE7=Milestones
TTITLE8=What Are You Doing the Rest of Your Life
TTITLE9=Blues for Pam
EXTD=YEAR: 1981
EXTT0=
EXTT1=
EXTT2=
EXTT3=
EXTT4=
EXTT5=
EXTT6=
EXTT7=
EXTT8=
EXTT9=
PLAYORDER=
